Coordinates
version=1
nRows=14
nColumns=40
inDegrees=yes

Units are S.I. units (second, meters, Newtons, ...)
If the header above contains a line with 'inDegrees', this indicates whether rotational values are in degrees (yes) or radians (no).

endheader
time	pelvis_tilt	pelvis_list	pelvis_rotation	pelvis_tx	pelvis_ty	pelvis_tz	hip_flexion_r	hip_adduction_r	hip_rotation_r	knee_angle_r	knee_angle_r_beta	ankle_angle_r	subtalar_angle_r	mtp_angle_r	hip_flexion_l	hip_adduction_l	hip_rotation_l	knee_angle_l	knee_angle_l_beta	ankle_angle_l	subtalar_angle_l	mtp_angle_l	lumbar_extension	lumbar_bending	lumbar_rotation	arm_flex_r	arm_add_r	arm_rot_r	elbow_flex_r	pro_sup_r	wrist_flex_r	wrist_dev_r	arm_flex_l	arm_add_l	arm_rot_l	elbow_flex_l	pro_sup_l	wrist_flex_l	wrist_dev_l
      4.75000000	     -3.22247433	    -10.68639443	      8.66366665	     -0.39619096	      0.65733307	     -1.04088813	     67.02420107	     -0.21223121	    -21.58419548	      1.47657666	      0.02577112	    -14.09835539	      0.00000000	      0.00000000	     65.32387005	      0.85657023	      4.45863499	    100.88264413	      1.76073430	     29.66764851	      0.00000000	      0.00000000	    -22.64207352	     22.50410798	     15.99806392	     89.88458333	    -15.60529342	     20.29913325	     28.03538361	     78.52109243	      0.00000000	      0.00000000	     89.96707402	    -35.61108572	     -5.96088105	     67.62996557	     70.84347416	      0.00000000	      0.00000000
      4.75500000	     -3.02693726	    -10.71957374	      8.43182865	     -0.39576318	      0.65898797	     -1.04093256	     66.69465338	      0.08261635	    -21.61233669	      1.47817762	      0.02579907	    -14.06784704	      0.00000000	      0.00000000	     64.88941841	      0.44754652	      4.32786764	    100.64881085	      1.75665314	     29.68487943	      0.00000000	      0.00000000	    -22.96318838	     22.61755959	     16.14384772	     89.87378097	    -15.41450890	     21.13379004	     26.93486765	     78.72710963	      0.00000000	      0.00000000	     89.96670654	    -36.19815583	     -5.94614033	     67.87726799	     71.06379825	      0.00000000	      0.00000000
      4.76000000	     -2.89411894	    -10.67862692	      8.42369647	     -0.39562396	      0.66050589	     -1.04132939	     66.45596498	      0.10061888	    -21.79307011	      1.46747867	      0.02561233	    -14.11613720	      0.00000000	      0.00000000	     64.56450648	      0.35068657	      4.23660770	    100.39257625	      1.75218100	     29.56297601	      0.00000000	      0.00000000	    -23.12525202	     22.71511445	     16.13078004	     89.85995546	    -15.23295818	     21.60110816	     25.67783760	     78.82697394	      0.00000000	      0.00000000	     89.96647443	    -36.49073482	     -6.03616691	     68.08977194	     71.12599261	      0.00000000	      0.00000000
      4.76500000	     -2.79851913	    -10.68713611	      8.38508322	     -0.39543369	      0.66195597	     -1.04164156	     66.24149477	      0.15632372	    -21.97105665	      1.47944292	      0.02582115	    -14.00643225	      0.00000000	      0.00000000	     64.27650263	      0.20472262	      4.19962921	    100.15097741	      1.74796430	     29.56053579	      0.00000000	      0.00000000	    -23.28125529	     22.84684903	     16.11688878	     89.84211390	    -15.03722965	     22.16222068	     24.56373850	     78.94448879	      0.00000000	      0.00000000	     89.96615602	    -36.91418706	     -6.07368181	     68.37901366	     71.18548349	      0.00000000	      0.00000000
      4.77000000	     -2.41478071	    -10.90195482	      8.49386787	     -0.39501209	      0.66397287	     -1.04207939	     65.68022029	      0.30394167	    -22.53634622	      1.37500428	      0.02399835	    -13.76903861	      0.00000000	      0.00000000	     63.72694313	     -0.03229708	      4.38040973	     99.93328410	      1.74416484	     29.50774207	      0.00000000	      0.00000000	    -23.68656050	     23.29303105	     15.88527387	     89.83069548	    -14.70284228	     23.78526980	     23.40358282	     79.35065165	      0.00000000	      0.00000000	     89.96562508	    -37.72274205	     -5.98201891	     68.47342475	     71.41160167	      0.00000000	      0.00000000
      4.77500000	     -2.24749187	    -10.87854756	      8.47033312	     -0.39474930	      0.66551736	     -1.04238145	     65.41291845	      0.35632980	    -22.77526583	      1.39627344	      0.02436957	    -13.81369350	      0.00000000	      0.00000000	     63.35310370	     -0.15446727	      4.31956354	     99.67942317	      1.73973413	     29.40844820	      0.00000000	      0.00000000	    -23.89046007	     23.37241572	     15.86642813	     89.79943456	    -14.55230031	     24.40891005	     22.20251281	     79.50388642	      0.00000000	      0.00000000	     89.96537788	    -37.98892203	     -6.01986349	     68.77492977	     71.49516426	      0.00000000	      0.00000000
      4.78000000	     -1.71739939	    -11.34424076	      8.60732843	     -0.39419265	      0.66776008	     -1.04263766	     64.68697531	      0.65774944	    -23.70484938	      1.27746489	      0.02229597	    -13.45164938	      0.00000000	      0.00000000	     62.71143449	     -0.65141532	      4.69235430	     99.54391992	      1.73736915	     29.49654849	      0.00000000	      0.00000000	    -24.44704377	     24.03385020	     15.94123832	     89.77750797	    -14.59316533	     26.72325957	     21.17845580	     80.24039060	      0.00000000	      0.00000000	     89.96504651	    -38.44591520	     -6.08793589	     68.88673974	     72.21566438	      0.00000000	      0.00000000
      4.78500000	     -1.62330708	    -11.31689523	      8.61487676	     -0.39399012	      0.66920128	     -1.04288631	     64.49541758	      0.65992153	    -23.83483366	      1.31232697	      0.02290443	    -13.45591985	      0.00000000	      0.00000000	     62.41278980	     -0.72452485	      4.64844404	     99.26773673	      1.73254885	     29.41072746	      0.00000000	      0.00000000	    -24.57106840	     24.09636521	     15.84652857	     89.72176908	    -14.34942146	     27.13627359	     20.07561352	     80.34667401	      0.00000000	      0.00000000	     89.96480994	    -38.77086428	     -6.10182761	     69.23908005	     72.29797514	      0.00000000	      0.00000000
      4.79000000	     -1.38843719	    -11.29347179	      8.65789358	     -0.39366354	      0.67087689	     -1.04323580	     64.13568586	      0.66801112	    -23.98884929	      1.33972465	      0.02338261	    -13.41192565	      0.00000000	      0.00000000	     61.96596799	     -0.84202639	      4.56168068	     99.02014417	      1.72822754	     29.34963232	      0.00000000	      0.00000000	    -24.82026971	     24.21248249	     15.62525117	     89.66091885	    -13.95578016	     27.83070511	     18.80614563	     80.53916477	      0.00000000	      0.00000000	     89.96443454	    -39.27135618	     -6.09601959	     69.44880655	     72.40046354	      0.00000000	      0.00000000
      4.79500000	     -1.14218413	    -11.34898141	      8.72116816	     -0.39324034	      0.67251234	     -1.04359825	     63.75826012	      0.71716214	    -24.12925989	      1.31287262	      0.02291395	    -13.36417131	      0.00000000	      0.00000000	     61.53926290	     -1.05130734	      4.49199145	     98.82175444	      1.72476499	     29.45232396	      0.00000000	      0.00000000	    -25.07511240	     24.42334744	     15.39240455	     89.57288896	    -13.59466018	     28.90731483	     17.67651445	     80.84434476	      0.00000000	      0.00000000	     89.96395354	    -39.87791367	     -6.06348488	     69.64906765	     72.55906494	      0.00000000	      0.00000000
      4.80000000	     -0.66397405	    -11.79729951	      8.89103415	     -0.39266565	      0.67452723	     -1.04383541	     63.12262884	      0.98070373	    -24.70338857	      1.23084183	      0.02148224	    -13.13833379	      0.00000000	      0.00000000	     60.98778641	     -1.46926463	      4.89870058	     98.68401119	      1.72236091	     29.44085657	      0.00000000	      0.00000000	    -25.55517498	     25.03604642	     15.42525403	     89.43546846	    -13.67455594	     31.06244826	     16.98696620	     82.31655343	      0.00000000	      0.00000000	     89.96362501	    -40.24498330	     -6.07441367	     69.82597214	     73.61514558	      0.00000000	      0.00000000
      4.80500000	     -0.52719221	    -11.78186781	      8.96388187	     -0.39231730	      0.67603565	     -1.04417142	     62.86407426	      0.94462306	    -24.63657485	      1.24426717	      0.02171656	    -12.97486863	      0.00000000	      0.00000000	     60.65799932	     -1.55818387	      4.82614491	     98.42615260	      1.71786043	     29.34899338	      0.00000000	      0.00000000	    -25.64691234	     25.13481657	     15.19818580	     89.16907420	    -13.54834206	     32.29498018	     16.20777104	     82.42417963	      0.00000000	      0.00000000	     89.96329467	    -40.57295569	     -6.16939613	     69.98006833	     75.38370249	      0.00000000	      0.00000000
      4.81000000	     -0.31163948	    -11.82572859	      9.01583238	     -0.39176929	      0.67766662	     -1.04435473	     62.52379806	      0.98827071	    -24.61680454	      1.26067221	      0.02200288	    -12.86587142	      0.00000000	      0.00000000	     60.24255549	     -1.74224959	      4.82122474	     98.19877325	      1.71389191	     29.27076921	      0.00000000	      0.00000000	    -25.79828148	     25.25474381	     15.06620655	     88.69320613	    -13.42047264	     32.65144357	     15.63542456	     82.74428810	      0.00000000	      0.00000000	     89.96302699	    -40.79394818	     -6.10895228	     70.21014409	     74.83498584	      0.00000000	      0.00000000
      4.81500000	     -0.20253544	    -11.92428372	      9.03279178	     -0.39124073	      0.67910906	     -1.04444285	     62.32065939	      1.06824746	    -24.60703011	      1.29264537	      0.02256092	    -12.78345743	      0.00000000	      0.00000000	     59.97464110	     -1.97829298	      4.81696501	     97.97775908	      1.71003449	     29.24348449	      0.00000000	      0.00000000	    -25.82419355	     25.37370832	     14.92388995	     88.01826638	    -13.40109366	     32.95197370	     15.43237019	     82.65872088	      0.00000000	      0.00000000	     89.96281356	    -40.99897465	     -6.16525730	     70.38912000	     76.37116895	      0.00000000	      0.00000000
